<svg height="512pt" viewBox="-110 0 512 512" width="512pt" xmlns="http://www.w3.org/2000/svg"><path d="m7.5 512c-4.140625 0-7.5-3.355469-7.5-7.5 0-35.4375 31.246094-53.085938 58.8125-68.652344 26.324219-14.867187 51.1875-28.910156 51.1875-55.59375 0-26.6875-24.863281-40.726562-51.1875-55.59375-27.566406-15.570312-58.8125-33.214844-58.8125-68.65625 0-35.4375 31.246094-53.085937 58.8125-68.65625 26.324219-14.867187 51.1875-28.910156 51.1875-55.59375 0-26.6875-24.863281-40.730468-51.1875-55.597656-27.566406-15.570312-58.8125-33.214844-58.8125-68.65625 0-4.144531 3.359375-7.5 7.5-7.5s7.5 3.355469 7.5 7.5c0 26.6875 24.863281 40.730469 51.1875 55.597656 27.566406 15.566406 58.8125 33.214844 58.8125 68.65625 0 35.4375-31.246094 53.085938-58.8125 68.65625-26.324219 14.867188-51.1875 28.910156-51.1875 55.59375 0 26.6875 24.863281 40.726563 51.1875 55.59375 27.566406 15.570313 58.8125 33.214844 58.8125 68.65625 0 35.4375-31.246094 53.085938-58.8125 68.652344-26.324219 14.867188-51.1875 28.910156-51.1875 55.59375 0 4.144531-3.359375 7.5-7.5 7.5zm0 0" fill="#ed2772"/><path d="m91.980469 219.671875c-1.5625 0-3.140625-.488281-4.492188-1.5-8.472656-6.351563-18.746093-12.152344-28.675781-17.761719-27.566406-15.570312-58.8125-33.21875-58.8125-68.65625 0-35.441406 31.246094-53.089844 58.8125-68.65625 26.324219-14.867187 51.1875-28.910156 51.1875-55.597656 0-4.144531 3.359375-7.5 7.5-7.5s7.5 3.355469 7.5 7.5c0 35.441406-31.246094 53.085938-58.8125 68.65625-26.324219 14.867188-51.1875 28.910156-51.1875 55.597656 0 26.683594 24.863281 40.726563 51.1875 55.59375 10.347656 5.84375 21.046875 11.886719 30.296875 18.824219 3.316406 2.480469 3.988281 7.183594 1.503906 10.5-1.472656 1.964844-3.726562 3-6.007812 3zm0 0" fill="#5b9ed6"/><path d="m117.5 512c-4.140625 0-7.5-3.355469-7.5-7.5 0-26.683594-24.863281-40.726562-51.1875-55.59375-27.566406-15.566406-58.8125-33.214844-58.8125-68.652344 0-35.441406 31.246094-53.085937 58.8125-68.65625 26.324219-14.867187 51.1875-28.90625 51.1875-55.59375 0-8.703125-2.539062-16.402344-7.761719-23.535156-2.449219-3.339844-1.722656-8.035156 1.617188-10.480469 3.34375-2.449219 8.035156-1.722656 10.484375 1.617188 7.074218 9.660156 10.660156 20.5625 10.660156 32.398437 0 35.441406-31.242188 53.085938-58.8125 68.65625-26.324219 14.867188-51.1875 28.90625-51.1875 55.59375 0 26.683594 24.863281 40.726563 51.1875 55.59375 27.570312 15.566406 58.8125 33.214844 58.8125 68.652344 0 4.144531-3.359375 7.5-7.5 7.5zm0 0" fill="#5b9ed6"/><path d="m111.492188 116.226562h-97.984376c-4.144531 0-7.5-3.359374-7.5-7.5 0-4.144531 3.355469-7.5 7.5-7.5h97.984376c4.144531 0 7.5 3.355469 7.5 7.5 0 4.140626-3.355469 7.5-7.5 7.5zm0 0" fill="#ed2772"/><path d="m117.5 263.5h-110c-4.140625 0-7.5-3.355469-7.5-7.5s3.359375-7.5 7.5-7.5h110c4.140625 0 7.5 3.355469 7.5 7.5s-3.359375 7.5-7.5 7.5zm0 0" fill="#f9a029"/><g fill="#ed2772"><path d="m111.492188 161.832031h-97.984376c-4.144531 0-7.5-3.355469-7.5-7.5 0-4.140625 3.355469-7.5 7.5-7.5h97.984376c4.144531 0 7.5 3.359375 7.5 7.5 0 4.144531-3.355469 7.5-7.5 7.5zm0 0"/><path d="m111.492188 365.167969h-97.984376c-4.144531 0-7.5-3.359375-7.5-7.5 0-4.144531 3.355469-7.5 7.5-7.5h97.984376c4.144531 0 7.5 3.355469 7.5 7.5 0 4.140625-3.355469 7.5-7.5 7.5zm0 0"/><path d="m111.492188 410.773438h-97.984376c-4.144531 0-7.5-3.355469-7.5-7.5 0-4.140626 3.355469-7.5 7.5-7.5h97.984376c4.144531 0 7.5 3.359374 7.5 7.5 0 4.144531-3.355469 7.5-7.5 7.5zm0 0"/><path d="m175.492188 512c-4.140626 0-7.5-3.355469-7.5-7.5 0-35.4375 31.246093-53.085938 58.8125-68.652344 26.324218-14.867187 51.1875-28.910156 51.1875-55.59375 0-26.6875-24.863282-40.726562-51.1875-55.59375-27.566407-15.570312-58.8125-33.214844-58.8125-68.65625 0-35.4375 31.246093-53.085937 58.8125-68.65625 26.324218-14.867187 51.1875-28.910156 51.1875-55.59375 0-26.6875-24.863282-40.730468-51.1875-55.597656-27.570313-15.570312-58.8125-33.214844-58.8125-68.65625 0-4.144531 3.359374-7.5 7.5-7.5 4.140624 0 7.5 3.355469 7.5 7.5 0 26.6875 24.863281 40.730469 51.1875 55.597656 27.566406 15.566406 58.8125 33.214844 58.8125 68.65625 0 35.4375-31.246094 53.085938-58.8125 68.65625-26.324219 14.867188-51.1875 28.910156-51.1875 55.59375 0 26.6875 24.863281 40.726563 51.1875 55.59375 27.566406 15.570313 58.8125 33.214844 58.8125 68.65625 0 35.4375-31.246094 53.085938-58.8125 68.652344-26.324219 14.867188-51.1875 28.910156-51.1875 55.59375 0 4.144531-3.359376 7.5-7.5 7.5zm0 0"/></g><path d="m203.546875 93.566406c-2.34375 0-4.652344-1.097656-6.113281-3.152344-2.402344-3.371093-1.617188-8.054687 1.757812-10.457031 8.582032-6.113281 18.257813-11.578125 27.613282-16.859375 26.324218-14.867187 51.1875-28.910156 51.1875-55.597656 0-4.144531 3.355468-7.5 7.5-7.5 4.140624 0 7.5 3.355469 7.5 7.5 0 35.441406-31.246094 53.089844-58.8125 68.65625-9.019532 5.09375-18.34375 10.359375-26.289063 16.019531-1.316406.9375-2.835937 1.390625-4.34375 1.390625zm0 0" fill="#5b9ed6"/><path d="m285.492188 512c-4.140626 0-7.5-3.355469-7.5-7.5 0-26.683594-24.863282-40.726562-51.1875-55.59375-27.566407-15.566406-58.8125-33.214844-58.8125-68.652344 0-35.441406 31.246093-53.085937 58.8125-68.65625 26.324218-14.867187 51.1875-28.90625 51.1875-55.59375 0-26.683594-24.863282-40.726562-51.1875-55.59375-27.566407-15.570312-58.8125-33.21875-58.8125-68.65625 0-12.53125 3.804687-23.550781 11.625-33.683594 2.535156-3.28125 7.242187-3.886718 10.523437-1.355468 3.277344 2.53125 3.882813 7.238281 1.351563 10.519531-5.71875 7.410156-8.5 15.429687-8.5 24.519531 0 26.683594 24.863281 40.726563 51.1875 55.59375 27.566406 15.570313 58.8125 33.21875 58.8125 68.65625 0 35.441406-31.246094 53.085938-58.8125 68.65625-26.324219 14.867188-51.1875 28.90625-51.1875 55.59375 0 26.683594 24.863281 40.726563 51.1875 55.59375 27.566406 15.566406 58.8125 33.214844 58.8125 68.652344 0 4.144531-3.359376 7.5-7.5 7.5zm0 0" fill="#5b9ed6"/><path d="m285.492188 137.5h-110c-4.140626 0-7.5-3.355469-7.5-7.5s3.359374-7.5 7.5-7.5h110c4.140624 0 7.5 3.355469 7.5 7.5s-3.359376 7.5-7.5 7.5zm0 0" fill="#f9a029"/><path d="m285.492188 387.5h-110c-4.140626 0-7.5-3.355469-7.5-7.5s3.359374-7.5 7.5-7.5h110c4.140624 0 7.5 3.355469 7.5 7.5s-3.359376 7.5-7.5 7.5zm0 0" fill="#74c26c"/><path d="m279.484375 240.695312h-97.988281c-4.140625 0-7.5-3.355468-7.5-7.5 0-4.144531 3.359375-7.5 7.5-7.5h97.988281c4.144531 0 7.5 3.355469 7.5 7.5 0 4.144532-3.355469 7.5-7.5 7.5zm0 0" fill="#5b9ed6"/><path d="m279.484375 286.304688h-97.988281c-4.140625 0-7.5-3.355469-7.5-7.5 0-4.144532 3.359375-7.5 7.5-7.5h97.988281c4.144531 0 7.5 3.355468 7.5 7.5 0 4.144531-3.355469 7.5-7.5 7.5zm0 0" fill="#5b9ed6"/></svg>