<svg height="512pt" viewBox="0 -61 512 512" width="512pt" xmlns="http://www.w3.org/2000/svg"><path d="m382.226562 275.984375s61.042969-55.488281 114.625-48.332031c7.996094 1.066406 15.148438-4.980469 15.148438-13.046875v-40.144531c0-8.066407-7.152344-14.113282-15.148438-13.046876-53.582031 7.15625-114.625-48.328124-114.625-48.328124zm0 0" fill="#ed2772"/><path d="m382.226562 275.984375s16.421876-14.921875 39.703126-28.292969c4.945312-16.894531 7.597656-34.726562 7.597656-53.15625 0-18.429687-2.648438-36.261718-7.597656-53.160156-23.28125-13.367188-39.703126-28.289062-39.703126-28.289062zm0 0" fill="#d62367"/><path d="m183.617188 1.492188c7.917968-.980469 15.980468-1.492188 24.160156-1.492188 107.4375 0 194.535156 87.09375 194.535156 194.53125 0 107.441406-87.097656 194.535156-194.535156 194.535156s-194.53125-87.09375-194.53125-194.53125c0-89.8125 60.863281-165.390625 143.59375-187.78125 0 0 9.433594-3.890625 26.777344-5.261718zm0 0" fill="#f4f2f3"/><path d="m327.714844 41.363281c25.910156 33.046875 41.359375 74.6875 41.359375 119.9375 0 107.4375-87.09375 194.53125-194.53125 194.53125-45.25 0-86.890625-15.449219-119.933594-41.363281 35.609375 45.417969 90.980469 74.597656 153.167969 74.597656 107.4375 0 194.535156-87.09375 194.535156-194.53125 0-62.1875-29.183594-117.558594-74.597656-153.171875zm0 0" fill="#cccbcb"/><path d="m32.027344 265.351562c-1.453125 0-2.910156-.410156-4.191406-1.238281-16.910157-10.925781-27.835938-39.023437-27.835938-71.582031 0-32.5625 10.925781-60.660156 27.835938-71.585938 2.777343-1.792968 6.390624-1.621093 8.984374.429688s3.59375 5.527344 2.488282 8.644531c-7.117188 20.046875-10.726563 41.078125-10.726563 62.507813 0 21.433594 3.609375 42.464844 10.726563 62.511718 1.105468 3.117188.105468 6.59375-2.488282 8.644532-1.398437 1.105468-3.09375 1.667968-4.792968 1.667968zm0 0" fill="#e3e1e1"/><path d="m97.929688 253.011719c-3.699219 15.132812-11.460938 28.980469-22.425782 40.054687-7.046875 7.117188-15.875 14.351563-22.644531 14.351563-1.253906 0-2.5-.101563-3.734375-.285157-22.59375-31.78125-35.878906-70.636718-35.878906-112.597656 0-41.960937 13.285156-80.820312 35.878906-112.597656 1.234375-.183594 2.480469-.308594 3.734375-.285156 29.269531.535156 53.035156 51.660156 52.75 112.882812-.097656 20.71875-2.742187 40.128906-7.292969 56.820313 0-.003907-.128906.597656-.386718 1.65625zm0 0" fill="#5b9ed6"/><path d="m52.859375 81.652344c-1.253906-.023438-2.5.101562-3.734375.285156-1.25 1.753906-2.464844 3.535156-3.652344 5.332031 21.390625 14.921875 36.867188 57.792969 36.632813 107.265625-.09375 20.71875-2.738281 40.128906-7.289063 56.816406 0 0-.128906.601563-.386718 1.660157-3.699219 15.132812-11.460938 28.980469-22.425782 40.054687-2.398437 2.421875-5 4.847656-7.660156 7.007813 1.546875 2.386719 3.136719 4.742187 4.78125 7.058593 1.234375.183594 2.476562.28125 3.734375.28125 6.769531 0 15.597656-7.230468 22.644531-14.351562 10.964844-11.070312 18.726563-24.917969 22.425782-40.050781.257812-1.058594.386718-1.660157.386718-1.660157 4.550782-16.6875 7.195313-36.097656 7.289063-56.820312.289062-61.21875-23.476563-112.34375-52.746094-112.878906zm0 0" fill="#508bbd"/><path d="m58.703125 194.535156c0-27.609375-11.613281-49.988281-25.945313-49.988281-14.328124 0-25.945312 22.378906-25.945312 49.988281 0 27.605469 11.617188 49.988282 25.945312 49.988282 14.332032 0 25.945313-22.382813 25.945313-49.988282zm0 0" fill="#424242"/><g fill="#ed2772"><path d="m393.125 135.332031c-1.757812.652344-3.285156 1.929688-4.203125 3.726563-.039063.070312-3.808594 7.320312-11.425781 12.765625-9.675782 6.914062-21.246094 7.890625-34.390625 2.894531-7.394531-2.808594-13.207031-5.785156-18.160157-8.726562-9.910156-22.042969 2.507813-35.253907 3.164063-35.929688 3-2.988281 3.035156-7.84375.066406-10.875-2.984375-3.046875-7.875-3.097656-10.925781-.113281-.695312.683593-13.261719 13.359375-11.480469 34.429687-10.726562-6.445312-23.257812-10.957031-48.28125-9.289062-4.257812.28125-7.476562 3.964844-7.191406 8.222656.28125 4.253906 3.957031 7.488281 8.21875 7.191406 26.574219-1.773437 34.773437 3.824219 47.1875 12.292969 2.746094 1.871094 5.742187 3.910156 9.15625 6.019531.054687.035156.105469.070313.160156.101563 5.9375 3.660156 13.15625 7.53125 22.597657 11.117187 7.8125 2.96875 14.871093 4.164063 21.175781 4.164063 12.363281 0 21.816406-4.59375 28.3125-9.382813 4.6875-3.457031 8.265625-7.34375 10.816406-10.621094-1.316406-6.105468-2.917969-12.109374-4.796875-17.988281zm0 0"/><path d="m395.019531 216.601562c-.875.089844-21.746093 2.34375-48.109375 12.609376-9.6875 3.769531-18.824218 8.164062-27.390625 13.085937-.496093.222656-.96875.496094-1.414062.820313-10.074219 5.90625-19.320313 12.574218-27.617188 19.945312-14.046875-11.570312-11.164062-31.136719-11.007812-32.128906.695312-4.199219-2.136719-8.167969-6.335938-8.878906-4.203125-.707032-8.191406 2.125-8.902343 6.332031-.214844 1.273437-4.472657 28.316406 15.167968 45.558593-5.140625 5.570313-9.824218 11.441407-13.964844 17.617188-2.378906 3.542969-1.433593 8.339844 2.109376 10.71875 1.324218.886719 2.816406 1.3125 4.296874 1.3125 2.488282 0 4.933594-1.203125 6.421876-3.425781 8.289062-12.355469 18.238281-22.515625 28.796874-30.867188-2.628906 21.691407 8.453126 39.304688 9.09375 40.296875 1.472657 2.289063 3.949219 3.535156 6.484376 3.535156 1.421874 0 2.867187-.394531 4.15625-1.21875 3.585937-2.289062 4.636718-7.0625 2.363281-10.65625-.621094-.984374-14.722657-23.808593-1.105469-46.011718 34.339844-19.386719 68.042969-23.226563 68.558594-23.277344.769531-.082031 1.503906-.277344 2.183594-.5625.824218-4.277344 1.507812-8.601562 2.042968-12.972656-1.554687-1.339844-3.628906-2.066406-5.828125-1.832032zm0 0"/><path d="m276.851562 181.800781c-3.480468 2.464844-4.308593 7.285157-1.847656 10.765625 2.464844 3.484375 7.285156 4.3125 10.769532 1.847656 16.097656-11.386718 34.855468 6.8125 35.683593 7.632813 1.507813 1.503906 3.480469 2.253906 5.453125 2.253906s3.949219-.753906 5.457032-2.261719c3.019531-3.011718 3.023437-7.902343.007812-10.921874-9.835938-9.847657-34.09375-24.46875-55.523438-9.316407zm0 0"/><path d="m287.980469 69.746094c25.554687 1.78125 39.285156 17.765625 39.910156 18.507812 1.523437 1.84375 3.730469 2.796875 5.949219 2.796875 1.726562 0 3.464844-.574219 4.898437-1.757812 3.296875-2.707031 3.777344-7.574219 1.066407-10.871094-.730469-.890625-18.277344-21.824219-50.746094-24.085937-24.753906-1.730469-35.789063-20.671876-36.222656-21.441407-2.066407-3.734375-6.769532-5.085937-10.5-3.019531-3.734376 2.066406-5.082032 6.765625-3.019532 10.5.609375 1.101562 15.332032 27.042969 48.664063 29.371094zm0 0"/><path d="m284.183594 316.800781c-3.957032-1.574219-8.4375.316407-10.015625 4.28125-.460938 1.078125-11.835938 26.375-60.550781 23.382813-4.269532-.257813-7.921876 2.976562-8.183594 7.234375-.265625 4.257812 2.972656 7.921875 7.230468 8.183593 3.046876.1875 5.96875.277344 8.785157.277344 53.164062 0 66.476562-31.859375 67.042969-33.285156 1.574218-3.964844-.34375-8.5-4.308594-10.074219zm0 0"/></g></svg>