<svg height="512pt" viewBox="0 -50 512 511" width="512pt" xmlns="http://www.w3.org/2000/svg"><path d="m20.160156 411.148438h470.730469c11.136719 0 20.164063-9.027344 20.164063-20.164063v-198.632813c0-8.941406-7.25-16.1875-16.191407-16.1875h-125.636719c-14.074218 0-24.566406 12.953126-21.652343 26.71875 1.375 6.5 2.082031 13.246094 2.039062 20.164063-.308593 50.144531-42.644531 92.808594-92.78125 93.488281-52.5625.710938-95.390625-41.683594-95.390625-94.078125 0-6.734375.707032-13.300781 2.050782-19.632812 2.921874-13.761719-7.8125-26.664063-21.882813-26.664063h-125.417969c-8.941406 0-16.191406 7.25-16.191406 16.191406v198.632813c0 11.136719 9.027344 20.164063 20.160156 20.164063zm0 0" fill="#f2ead5"/><path d="m511.054688 196.222656h-140.664063c-10.15625 0-18.574219 6.726563-21.371094 15.644532.324219 2.894531.523438 5.832031.578125 8.800781.046875 2.472656-.007812 4.929687-.152344 7.359375.730469 4.722656 1.113282 9.5625 1.113282 14.492187 0 3.21875-.164063 6.402344-.480469 9.539063l.480469.742187c16.144531 0 16.144531-20.566406 32.289062-20.566406 16.140625 0 16.140625 20.566406 32.285156 20.566406 16.144532 0 16.144532-20.566406 32.285157-20.566406 16.144531 0 16.144531 20.566406 32.292969 20.566406 15.816406 0 16.148437-19.730469 31.34375-20.527343zm0 0" fill="#e3dcc9"/><path d="m32.289062 252.800781c16.144532 0 16.144532-20.5625 32.289063-20.5625s16.144531 20.5625 32.289063 20.5625c16.144531 0 16.144531-20.5625 32.285156-20.5625 16.144531 0 16.144531 20.5625 32.285156 20.5625l.480469-.742187c-.316407-3.136719-.480469-6.320313-.480469-9.539063 0-3.390625.183594-6.742187.53125-10.042969-.347656-3.292968-.53125-6.632812-.53125-10.019531 0-4.246093.285156-8.425781.828125-12.523437-3.339844-7.9375-11.25-13.707032-20.660156-13.707032h-141.605469v36.011719c16.144531 0 16.144531 20.5625 32.289062 20.5625zm0 0" fill="#e3dcc9"/><path d="m32.289062 232.738281c16.144532 0 16.144532-20.566406 32.289063-20.566406s16.144531 20.566406 32.289063 20.566406c16.144531 0 16.144531-20.566406 32.285156-20.566406 16.144531 0 16.144531 20.566406 32.285156 20.566406l.480469-.742187c-.316407-3.136719-.480469-6.320313-.480469-9.539063 0-6.734375.710938-13.296875 2.054688-19.628906 2.921874-13.765625-7.8125-26.667969-21.886719-26.667969h-125.414063c-8.941406 0-16.191406 7.25-16.191406 16.191406v19.820313c16.144531.003906 16.144531 20.566406 32.289062 20.566406zm0 0" fill="#efb490"/><path d="m479.710938 232.738281c-16.144532 0-16.144532-20.566406-32.289063-20.566406s-16.144531 20.566406-32.289063 20.566406c-16.144531 0-16.144531-20.566406-32.285156-20.566406-16.144531 0-16.144531 20.566406-32.285156 20.566406l-.480469-.742187c.316407-3.136719.480469-6.320313.480469-9.539063 0-6.734375-.710938-13.296875-2.054688-19.628906-2.921874-13.765625 7.816407-26.667969 21.886719-26.667969h125.414063c8.941406 0 16.191406 7.25 16.191406 16.191406v19.820313c-16.144531.003906-16.144531 20.566406-32.289062 20.566406zm0 0" fill="#efb490"/><g fill="#999487"><path d="m153.117188 324.246094c0 7.382812-5.984376 13.367187-13.367188 13.367187s-13.367188-5.984375-13.367188-13.367187c0-7.382813 5.984376-13.367188 13.367188-13.367188s13.367188 5.984375 13.367188 13.367188zm0 0"/><path d="m43.09375 358.179688c0 7.382812-5.988281 13.367187-13.371094 13.367187-7.382812 0-13.367187-5.984375-13.367187-13.367187 0-7.382813 5.984375-13.371094 13.367187-13.371094 7.382813 0 13.371094 5.988281 13.371094 13.371094zm0 0"/><path d="m77.023438 292.359375c0 7.382813-5.984376 13.367187-13.367188 13.367187s-13.367188-5.984374-13.367188-13.367187c0-7.386719 5.984376-13.371094 13.367188-13.371094s13.367188 5.984375 13.367188 13.371094zm0 0"/><path d="m384.671875 324.246094c0 7.382812-5.984375 13.367187-13.367187 13.367187-7.382813 0-13.367188-5.984375-13.367188-13.367187 0-7.382813 5.984375-13.367188 13.367188-13.367188 7.382812 0 13.367187 5.984375 13.367187 13.367188zm0 0"/><path d="m494.699219 358.179688c0 7.382812-5.984375 13.367187-13.371094 13.367187-7.382813 0-13.367187-5.984375-13.367187-13.367187 0-7.382813 5.984374-13.371094 13.367187-13.371094 7.386719 0 13.371094 5.988281 13.371094 13.371094zm0 0"/><path d="m460.765625 292.359375c0 7.382813-5.984375 13.367187-13.367187 13.367187-7.382813 0-13.371094-5.984374-13.371094-13.367187 0-7.386719 5.988281-13.371094 13.371094-13.371094 7.382812 0 13.367187 5.984375 13.367187 13.371094zm0 0"/></g><path d="m280.734375 126.699219c4.921875 20.410156 14.222656 39.570312 27.472656 55.964843 9.390625 11.613282 15.015625 26.394532 15.015625 42.496094 0 37.683594-30.789062 68.171875-68.582031 67.691406-36.421875-.464843-65.644531-29.125-66.777344-65.535156-.519531-16.710937 5.023438-32.109375 14.59375-44.171875 15.546875-19.589843 26.085938-42.667969 30.070313-67.355469l17.910156-110.953124c.933594-5.78125 9.246094-5.78125 10.179688 0l13.394531 82.976562zm0 0" fill="#545454"/><path d="m308.207031 182.664062c-13.25-16.394531-22.550781-35.554687-27.472656-55.964843l-6.726563-38.886719-13.394531-82.980469c-.929687-5.777343-9.242187-5.777343-10.175781 0l-10.054688 62.300781 3.335938 20.679688 6.726562 38.886719c4.921876 20.410156 14.21875 39.570312 27.472657 55.964843 9.390625 11.613282 15.015625 26.394532 15.015625 42.496094 0 32.160156-22.433594 59.066406-52.503906 65.964844 4.550781 1.050781 9.265624 1.65625 14.101562 1.722656 37.839844.542969 68.6875-29.96875 68.6875-67.6875.003906-16.101562-5.621094-30.882812-15.011719-42.496094zm0 0" fill="#474747"/></svg>