<svg height="512pt" viewBox="-96 0 512 512" width="512pt" xmlns="http://www.w3.org/2000/svg"><path d="m41.210938 512v-112.460938c0-7.765624 6.316406-14.078124 14.078124-14.078124h10.648438c.179688 0 .355469-.023438.535156-.027344 1.84375 2.617187 3.898438 5.136718 6.195313 7.53125.585937.613281 1.1875 1.222656 1.800781 1.824218 19.421875 19.128907 46.214844 27.589844 72.707031 24.410157 55.675781-6.683594 101.027344-33.125 134.65625-82.019531 32.898438-47.835938 45.390625-108.167969 32.582031-165.558594-8.238281-36.902344-25.21875-66.089844-51.1875-87.347656-1.191406-.972657-2.398437-1.914063-3.617187-2.839844 0 0-16.125-11.617188-26.996094-15.492188-25.496093-9.082031-52.910156-11.804687-79.066406-2.945312-22.078125 7.476562-40.054687 21.21875-53.605469 41.628906-19.859375 29.921875-23.75 68.730469-8.8125 101.636719 5.433594 11.972656 12.652344 21.660156 21.886719 28.769531 4.808594 3.703125 8.21875 9.121094 9.492187 15.226562 1.210938 5.789063 1.019532 11.242188-.765624 16.3125-2.640626 7.492188-8.664063 13.195313-15.96875 15.5-4.402344 1.386719-8.5625 2.945313-12.488282 4.683594-23.621094 10.4375-37.304687 33.5625-38.503906 57.511719-30.253906.273437-54.78125 24.957031-54.78125 55.273437v112.460938zm0 0" fill="#cf4842"/><path d="m314.414062 171.621094c-8.234374-36.902344-25.21875-66.089844-51.183593-87.347656-1.191407-.972657-2.402344-1.914063-3.621094-2.839844 0 0-16.121094-11.617188-26.996094-15.492188-13.730469-4.890625-28.015625-7.933594-42.363281-8.320312 10.832031 4.195312 25.984375 15.113281 25.984375 15.113281 1.21875.925781 2.429687 1.867187 3.621094 2.839844 25.96875 21.257812 42.949219 50.445312 51.183593 87.347656 12.8125 57.394531.316407 117.726563-32.578124 165.558594-33.628907 48.894531-78.980469 75.335937-134.65625 82.019531-2.101563.253906-4.203126.425781-6.304688.53125 15.304688 7.410156 32.550781 10.222656 49.679688 8.167969 55.671874-6.683594 101.027343-33.125 134.652343-82.019531 32.898438-47.835938 45.390625-108.167969 32.582031-165.558594zm0 0" fill="#a83a36"/><path d="m53.574219 0v60.324219c0 20.789062 14.167969 38.496093 34.449219 43.0625l5.957031 1.335937c1.703125.382813 3.292969.988282 4.785156 1.742188-7.445313 11.734375-12.492187 24.753906-14.957031 38.210937l-4.828125-1.085937c-18.835938-4.238282-35.851563-14.875-47.910157-29.949219-12.0625-15.078125-18.703124-34.011719-18.703124-53.316406v-60.324219zm0 0" fill="#ab3b36"/><path d="m88.023438 103.386719c-7.835938-1.765625-14.75-5.496094-20.296876-10.601563-6.398437 13.390625-9.957031 27.960938-10.457031 42.652344 6.804688 3.667969 14.105469 6.441406 21.710938 8.152344l4.828125 1.085937c2.464844-13.457031 7.511718-26.476562 14.957031-38.210937-1.492187-.753906-3.082031-1.359375-4.785156-1.742188zm0 0" fill="#8a302c"/></svg>